<svg width="205" height="98" viewBox="0 0 205 98" fill="none" xmlns="http://www.w3.org/2000/svg">
<path d="M13.7951 30.0328L14.0908 31.0651C13.4615 31.3126 12.7776 31.5644 12.039 31.8206C11.3164 32.0699 10.6054 32.2579 9.90612 32.3844L5.66023 22.3519L6.54616 21.977L7.37333 23.2644C7.54958 23.5474 7.79733 23.6214 8.11658 23.4863L18.3646 19.1492C18.6839 19.0141 18.8033 18.7847 18.7228 18.4612L18.3984 16.9609L19.2844 16.586L21.8481 22.6438L20.9622 23.0188L19.9047 21.3206C19.7125 21.0444 19.4648 20.9704 19.1615 21.0988L8.31484 25.6892L9.35858 28.1554C9.53422 28.5704 9.70556 28.9308 9.8726 29.2366C10.0464 29.5583 10.2171 29.806 10.3847 29.9797C10.5886 30.1946 10.8351 30.2879 11.1243 30.2596L13.7951 30.0328ZM15.3597 31.5558C16.931 30.6373 18.3855 30.3091 19.7233 30.5712C21.0847 30.8395 22.1547 31.6396 22.9332 32.9714C23.528 33.989 23.7322 34.9739 23.5459 35.926C23.3596 36.8781 22.7352 37.6647 21.6727 38.2858C21.5231 38.3732 21.3317 38.4751 21.0984 38.5913C20.8802 38.6988 20.6725 38.7901 20.4755 38.8651L16.7361 32.4678L17.5891 31.9693L20.3444 36.6831C20.428 36.6543 20.4997 36.6224 20.5595 36.5874C20.6281 36.5674 20.7073 36.5311 20.7971 36.4787C21.4406 36.1025 21.8638 35.6243 22.0666 35.044C22.2932 34.4698 22.2272 33.876 21.8685 33.2624C21.4574 32.5591 20.842 32.176 20.0222 32.1131C19.2024 32.0502 18.1416 32.3992 16.8397 33.1602C15.852 33.7375 15.1364 34.3164 14.6927 34.897C14.264 35.4688 14.0405 36.0311 14.0223 36.5838C14.0278 37.1428 14.188 37.6916 14.5029 38.2304C14.809 38.7541 15.213 39.1705 15.7149 39.4795C16.2254 39.8034 16.769 39.9776 17.3454 40.002L17.3367 40.76C16.5496 40.9591 15.766 40.855 14.9858 40.4477C14.2144 40.0553 13.5532 39.3878 13.0021 38.445C12.4598 37.5172 12.2113 36.6285 12.2568 35.7788C12.3259 34.9353 12.6246 34.1583 13.153 33.4479C13.6964 32.7288 14.4319 32.0981 15.3597 31.5558ZM24.9135 39.2519L24.1155 37.8063L24.8294 37.285L25.6817 38.1436C25.8119 38.2631 25.9306 38.3374 26.0377 38.3666C26.1588 38.3854 26.2925 38.3629 26.439 38.2989L29.0577 37.2559L29.7477 38.2008L27.2223 40.077L29.3076 42.9327L28.2577 43.6994L26.1878 40.8647L21.2113 44.4986C20.5394 44.9892 20.1681 45.4213 20.0974 45.7948C20.051 46.1721 20.1709 46.5568 20.4571 46.9487C20.6922 47.2707 20.9629 47.5238 21.2691 47.708C21.5855 47.9062 21.9273 48.0215 22.2943 48.0539L22.1907 48.8378C21.5512 48.9614 20.9387 48.8721 20.3532 48.5699C19.7779 48.2817 19.2756 47.8437 18.8463 47.2558C18.5396 46.8358 18.3164 46.3978 18.1766 45.9419C18.047 45.4999 18.0736 45.0513 18.2562 44.596C18.4388 44.1407 18.8381 43.6882 19.4541 43.2384L24.9135 39.2519ZM30.4365 43.5368L30.6132 42.8145C31.1569 42.9256 31.6762 42.9669 32.1711 42.9381C32.6904 42.9117 33.1099 42.7653 33.4296 42.4991C33.616 42.3438 33.7082 42.2107 33.706 42.0997C33.7171 41.9777 33.7183 41.8301 33.7095 41.657C33.6674 41.4439 33.6696 41.2164 33.7163 40.9745C33.763 40.7326 33.9129 40.5063 34.1659 40.2956C34.4456 40.0626 34.763 39.9562 35.1181 39.9763C35.4843 40.0097 35.7894 40.1729 36.0334 40.4659C36.3107 40.7989 36.4149 41.2084 36.346 41.6944C36.277 42.1804 35.9629 42.6563 35.4035 43.1222C34.9639 43.4883 34.4667 43.7444 33.9119 43.8908C33.3703 44.026 32.801 44.0602 32.2041 43.9934C31.6071 43.9267 31.0179 43.7745 30.4365 43.5368ZM24.5736 53.1879C24.9015 52.7783 25.2467 52.4121 25.6094 52.0891C25.9847 51.7542 26.3468 51.4558 26.6959 51.1938L27.4507 51.983L26.6869 53.2532C26.4713 53.5794 26.3852 53.8656 26.4288 54.1118C26.4734 54.3089 26.5657 54.5684 26.7057 54.8903C26.8576 55.2247 27.0954 55.561 27.4189 55.8992C27.8741 56.3752 28.3221 56.6303 28.7627 56.6646C29.2277 56.6995 29.6482 56.5372 30.0239 56.1777C30.312 55.9022 30.4659 55.5991 30.4855 55.2685C30.5176 54.926 30.4591 54.5263 30.3099 54.0693C30.1607 53.6124 29.9643 53.0686 29.7209 52.438C29.3843 51.5846 29.1869 50.814 29.1287 50.1262C29.0829 49.4263 29.3732 48.7769 29.9995 48.1779C30.751 47.459 31.5663 47.1829 32.4453 47.3495C33.3488 47.5167 34.2079 48.0262 35.0226 48.878C35.406 49.2788 35.7575 49.7341 36.0772 50.2438C36.3969 50.7536 36.6319 51.2124 36.7822 51.6203C36.456 51.9563 36.1118 52.2735 35.7496 52.572C35.3875 52.8704 35.0136 53.1441 34.628 53.393L33.9271 52.6602L34.6509 51.5361C34.7402 51.3788 34.8047 51.2331 34.8445 51.0991C34.8843 50.9651 34.8815 50.8118 34.8363 50.6392C34.7911 50.4666 34.7157 50.2749 34.6101 50.0641C34.5164 49.8659 34.374 49.6543 34.1828 49.4294C33.8119 49.0166 33.4068 48.7685 32.9673 48.6852C32.5278 48.6018 32.1076 48.7519 31.7068 49.1353C31.4062 49.4228 31.2458 49.7441 31.2256 50.0992C31.2055 50.4543 31.2586 50.8232 31.3849 51.2061C31.5358 51.5895 31.6986 51.9854 31.8734 52.3939C32.1179 52.9755 32.3197 53.5501 32.4787 54.1175C32.6378 54.685 32.6685 55.2312 32.571 55.7562C32.4855 56.2938 32.2048 56.7902 31.7288 57.2454C31.0023 57.9403 30.1691 58.1977 29.2291 58.0174C28.2891 57.8371 27.3878 57.2961 26.5252 56.3942C26.01 55.8556 25.5934 55.2947 25.2753 54.7114C24.9573 54.1281 24.7234 53.6203 24.5736 53.1879ZM42.0669 57.6448L40.9025 56.4742L41.4458 55.7768L42.5011 56.3681C42.6592 56.4473 42.7937 56.4862 42.9047 56.4847C43.0263 56.4696 43.1487 56.4112 43.2719 56.3094L45.5034 54.5871L46.4264 55.3061L44.5136 57.804L47.3032 59.9769L46.5043 61.0025L43.7353 58.8455L39.9486 63.7067C39.4373 64.3631 39.199 64.8806 39.2337 65.2591C39.2927 65.6347 39.5137 65.9716 39.8966 66.2698C40.2111 66.5148 40.5408 66.6838 40.8859 66.7768C41.2446 66.8804 41.6049 66.8974 41.9667 66.8277L42.0824 67.61C41.5015 67.9045 40.888 67.9869 40.242 67.8572C39.6097 67.7381 39.0064 67.4549 38.432 67.0076C38.0218 66.688 37.6869 66.3282 37.4272 65.9282C37.1812 65.5389 37.0835 65.1002 37.134 64.6123C37.1845 64.1243 37.4441 63.5795 37.9128 62.9778L42.0669 57.6448ZM44.5553 71.33C43.8238 70.8653 43.3302 70.2847 43.0744 69.5883C42.8333 68.9011 42.9405 68.1991 43.3959 67.4822C43.7863 66.8678 44.2687 66.4965 44.8429 66.3685C45.441 66.2351 46.0618 66.2599 46.7054 66.4429C47.349 66.6259 47.9627 66.8721 48.5465 67.1814L50.8087 68.3723L50.2789 69.2062L48.302 68.1966C47.6304 67.8315 47.04 67.6618 46.5308 67.6874C46.0363 67.7223 45.631 67.9885 45.315 68.4859C45.064 68.8809 44.9785 69.2579 45.0586 69.6167C45.1532 69.9849 45.4273 70.3131 45.8809 70.6012C46.3636 70.908 46.9088 71.1004 47.5164 71.1784C48.1387 71.2656 48.6764 71.2274 49.1296 71.0635L49.0622 71.606C48.411 71.9521 47.674 72.1102 46.8511 72.0802C46.0521 72.0449 45.2868 71.7948 44.5553 71.33ZM47.0753 62.273C47.6852 61.7979 48.4215 61.6086 49.2844 61.7051C50.1472 61.8015 51.0029 62.1193 51.8515 62.6584C52.9195 63.337 53.5449 64.1142 53.7276 64.9902C53.9197 65.8515 53.6671 66.8308 52.97 67.928L50.0838 72.4707C49.8793 72.7925 49.9287 73.0704 50.2319 73.3041L51.0759 73.9636L50.6019 74.7097C50.4277 74.6606 50.1637 74.5751 49.81 74.453C49.4563 74.331 49.1478 74.1863 48.8844 74.019C48.4455 73.7401 48.1734 73.3927 48.0681 72.9766C47.9774 72.5699 48.0562 72.1066 48.3044 71.5866L51.1488 67.1098C51.6693 66.2905 51.8636 65.613 51.7316 65.0773C51.6235 64.5363 51.233 64.0521 50.56 63.6245C50.0626 63.3084 49.536 63.0868 48.9802 62.9596C48.4244 62.8324 47.8401 62.8308 47.2274 62.9549L47.0753 62.273ZM51.5772 75.4563L52 74.5923L53.1309 74.9431C53.4496 75.0411 53.6851 74.9345 53.8375 74.6231L59.5862 62.8763C59.731 62.5805 59.6591 62.3331 59.3706 62.134L58.2243 61.3414L58.6014 60.5708C59.1526 60.6668 59.7431 60.8207 60.3728 61.0324C61.0101 61.2285 61.5817 61.4407 62.0875 61.669L62.2421 62.063L55.6591 75.5146C55.5067 75.8259 55.5748 76.0812 55.8633 76.2803L56.8108 76.9466L56.388 77.8107L51.5772 75.4563ZM59.5173 79.3421C59.2838 79.2279 59.1384 78.9927 59.0811 78.6366C59.047 78.2725 59.0198 77.8154 58.9996 77.2651L58.9336 74.975C58.9064 74.5179 58.8834 74.0917 58.8645 73.6965C58.8456 73.3013 58.8037 72.9335 58.7388 72.5929L60.5594 72.0076C60.6482 72.4177 60.7134 72.797 60.7552 73.1455C60.8045 73.4784 60.8428 73.8734 60.8699 74.3306L61.2048 78.1417C61.1988 78.3511 61.2313 78.5213 61.3021 78.6525C61.373 78.7837 61.4631 78.8953 61.5724 78.9874L62.5324 79.7467L62.1095 80.6107L59.5173 79.3421ZM55.9612 74.1283L56.4273 72.8801L63.4851 70.1106L63.3619 70.6581L61.3729 69.2216L61.7729 68.4042L66.3969 70.6671L65.9969 71.4845L64.8784 71.2266C64.6687 71.1819 64.4979 71.1562 64.3661 71.1496C64.2574 71.135 64.1258 71.1478 63.9711 71.1878L55.9612 74.1283ZM64.8588 76.0151C65.4778 74.3036 66.385 73.1202 67.5804 72.4651C68.798 71.7995 70.1322 71.7291 71.5829 72.2538C72.6913 72.6546 73.4787 73.2804 73.9452 74.1311C74.4117 74.9818 74.4357 75.9858 74.0171 77.1431C73.9582 77.3061 73.8763 77.5069 73.7716 77.7455C73.6728 77.9678 73.5717 78.1709 73.4683 78.3547L66.5001 75.8345L66.8361 74.9054L71.9706 76.7624C72.0164 76.6868 72.0511 76.6164 72.0746 76.5512C72.1145 76.4919 72.1521 76.4133 72.1875 76.3155C72.441 75.6146 72.4599 74.9763 72.2442 74.4006C72.0506 73.8145 71.6197 73.4006 70.9514 73.1589C70.1853 72.8819 69.4672 72.9816 68.7972 73.4581C68.1272 73.9347 67.5358 74.882 67.0229 76.3001C66.6338 77.3759 66.4547 78.2788 66.4856 79.0088C66.5224 79.7226 66.7107 80.2976 67.0506 80.7338C67.4127 81.1597 67.8871 81.4787 68.4739 81.691C69.0444 81.8973 69.6213 81.9585 70.2047 81.8745C70.8043 81.7965 71.3333 81.5823 71.7918 81.232L72.2704 81.8198C71.7932 82.4767 71.1246 82.8984 70.2645 83.0851C69.4208 83.2776 68.4854 83.1881 67.4585 82.8167C66.4479 82.4512 65.688 81.9276 65.1789 81.2458C64.692 80.5536 64.424 79.7655 64.3751 78.8814C64.3321 77.9811 64.4933 77.0257 64.8588 76.0151ZM81.7947 86.8376C80.9445 86.6697 80.2739 86.3077 79.783 85.7514C79.3091 85.1985 79.1544 84.5054 79.3189 83.6722C79.4599 82.9579 79.7747 82.4371 80.2634 82.1095C80.7725 81.7683 81.3601 81.5663 82.0262 81.5034C82.6923 81.4406 83.3535 81.4474 84.0098 81.524L86.5498 81.8134L86.3585 82.7827L84.15 82.5587C83.3917 82.462 82.78 82.5179 82.3148 82.7265C81.8666 82.9383 81.5854 83.3334 81.4713 83.9115C81.3807 84.3707 81.4377 84.753 81.6424 85.0584C81.8642 85.3672 82.2386 85.5736 82.7658 85.6777C83.3269 85.7885 83.9048 85.77 84.4993 85.6224C85.1108 85.4781 85.598 85.2474 85.961 84.9303L86.0949 85.4603C85.6136 86.019 84.984 86.4336 84.2062 86.7041C83.4488 86.9609 82.645 87.0054 81.7947 86.8376ZM80.8587 77.4832C81.2547 76.8193 81.8723 76.3759 82.7114 76.1528C83.5505 75.9298 84.4632 75.9156 85.4495 76.1103C86.6908 76.3553 87.5555 76.8529 88.0435 77.6029C88.5348 78.336 88.6546 79.3402 88.4029 80.6156L87.3605 85.8957C87.2867 86.2698 87.4335 86.5108 87.8009 86.6186L88.8265 86.9271L88.6553 87.7944C88.4752 87.8118 88.1982 87.8278 87.8243 87.8423C87.4504 87.8569 87.1104 87.8339 86.8043 87.7735C86.2942 87.6728 85.9146 87.4477 85.6656 87.0982C85.4335 86.752 85.3389 86.2916 85.3817 85.717L86.4089 80.5135C86.5969 79.5612 86.5322 78.8594 86.215 78.408C85.9181 77.9431 85.3785 77.6334 84.5962 77.479C84.0181 77.3648 83.4469 77.3493 82.8829 77.4322C82.3188 77.5152 81.7737 77.7257 81.2476 78.0635L80.8587 77.4832ZM95.9798 88.2613C95.9364 87.7385 95.9354 87.2351 95.9768 86.7513C96.0191 86.2501 96.077 85.7844 96.1504 85.3541L97.2411 85.4084L97.5596 86.856C97.6272 87.2411 97.7614 87.5081 97.9623 87.657C98.1302 87.7694 98.3757 87.8945 98.6986 88.032C99.0388 88.1704 99.4426 88.2512 99.91 88.2745C100.568 88.3072 101.069 88.1845 101.412 87.9066C101.774 87.6122 101.968 87.2053 101.993 86.686C102.013 86.2878 101.917 85.9619 101.704 85.7084C101.492 85.4375 101.174 85.1874 100.752 84.9582C100.329 84.7289 99.8129 84.4689 99.2026 84.1783C98.3715 83.7899 97.6984 83.3659 97.1832 82.9064C96.669 82.4296 96.4333 81.7584 96.4764 80.8928C96.528 79.8541 96.9303 79.0932 97.6832 78.6099C98.4543 78.1103 99.4285 77.8897 100.606 77.9483C101.16 77.9758 101.728 78.0648 102.311 78.2153C102.893 78.3657 103.379 78.5374 103.769 78.7303C103.763 79.1986 103.731 79.6656 103.673 80.1313C103.615 80.597 103.532 81.0527 103.423 81.4985L102.41 81.4482L102.163 80.1343C102.12 79.9586 102.066 79.8084 102.003 79.6838C101.94 79.5592 101.833 79.4497 101.681 79.3554C101.53 79.2611 101.343 79.1737 101.121 79.0933C100.917 79.0137 100.668 78.958 100.375 78.926C99.8217 78.8811 99.3569 78.9795 98.9805 79.2211C98.604 79.4627 98.402 79.8605 98.3745 80.4145C98.3538 80.83 98.4582 81.1736 98.6877 81.4453C98.9171 81.7171 99.2093 81.9485 99.5643 82.1397C99.9374 82.3145 100.328 82.4901 100.736 82.6665C101.313 82.9209 101.854 83.1994 102.36 83.5022C102.866 83.8051 103.263 84.1806 103.554 84.6289C103.861 85.0781 103.998 85.6316 103.966 86.2894C103.916 87.2935 103.487 88.0532 102.681 88.5684C101.874 89.0837 100.848 89.3103 99.6013 89.2483C98.8569 89.2113 98.1687 89.0903 97.5368 88.8854C96.9048 88.6804 96.3859 88.4724 95.9798 88.2613ZM106.766 79.7452L105.122 79.5877L105.095 78.7041L106.285 78.4854C106.457 78.4454 106.585 78.3895 106.67 78.3175C106.754 78.2282 106.81 78.1051 106.84 77.9481L107.458 75.1978L108.627 75.1618L108.75 78.3055L112.285 78.1968L112.324 79.4961L108.816 79.6041L109.006 85.7632C109.031 86.5948 109.178 87.1452 109.447 87.4144C109.732 87.6657 110.117 87.784 110.602 87.769C111.001 87.7568 111.362 87.6763 111.687 87.5275C112.029 87.3783 112.318 87.1613 112.552 86.8766L113.14 87.4048C112.881 88.0024 112.462 88.4575 111.882 88.7701C111.319 89.0823 110.674 89.2495 109.946 89.2719C109.426 89.2879 108.939 89.2249 108.484 89.0828C108.046 88.9402 107.69 88.665 107.418 88.2572C107.145 87.8494 106.997 87.2643 106.973 86.502L106.766 79.7452ZM113.774 83.6434C113.557 81.8365 113.834 80.3715 114.606 79.2483C115.394 78.1058 116.554 77.4422 118.085 77.2576C119.255 77.1166 120.24 77.3208 121.04 77.8704C121.839 78.42 122.313 79.3057 122.46 80.5275C122.481 80.6996 122.498 80.9158 122.512 81.176C122.524 81.419 122.525 81.6458 122.515 81.8565L115.159 82.7433L115.04 81.7624L120.461 81.1089C120.468 81.0208 120.467 80.9423 120.459 80.8735C120.468 80.8026 120.466 80.7155 120.454 80.6123C120.364 79.8723 120.094 79.2938 119.642 78.8769C119.205 78.4407 118.634 78.2651 117.929 78.3502C117.12 78.4477 116.524 78.86 116.14 79.5872C115.756 80.3143 115.655 81.4265 115.835 82.9236C115.972 84.0594 116.219 84.9463 116.575 85.5842C116.929 86.205 117.356 86.6336 117.856 86.8701C118.371 87.0874 118.938 87.1587 119.558 87.084C120.16 87.0114 120.703 86.8063 121.186 86.4687C121.686 86.1291 122.062 85.6997 122.314 85.1805L123.006 85.4899C122.875 86.2912 122.468 86.9688 121.784 87.5227C121.117 88.0744 120.242 88.4157 119.158 88.5464C118.091 88.675 117.177 88.5495 116.415 88.1699C115.669 87.771 115.075 87.188 114.633 86.4206C114.189 85.6361 113.903 84.7104 113.774 83.6434ZM126.14 92.0546L125.924 91.1172L127.023 90.677C127.336 90.5692 127.454 90.3464 127.376 90.0086L124.73 78.5318C124.652 78.1939 124.455 78.0348 124.14 78.0542L122.807 78.1748L122.596 77.2627C123.085 76.99 123.59 76.7491 124.111 76.54C124.632 76.3309 125.152 76.1576 125.672 76.0199L126.077 76.2734L126.653 77.8481L129.352 89.553C129.43 89.8908 129.642 90.0376 129.988 89.9935L131.574 89.8145L131.79 90.7519L126.14 92.0546ZM130.583 86.441C130.211 86.5267 129.798 86.5864 129.343 86.6201C128.905 86.6499 128.506 86.6173 128.147 86.5224L128.088 85.2284C128.321 85.3882 128.645 85.4825 129.061 85.5111C129.476 85.5398 129.921 85.4996 130.394 85.3906C131.356 85.1686 132.049 84.662 132.471 83.8709C132.894 83.0798 132.923 81.8546 132.558 80.1955C132.255 78.8066 131.798 77.827 131.186 77.2565C130.588 76.6653 129.807 76.4806 128.844 76.7026C128.27 76.835 127.797 77.0597 127.425 77.3766C127.054 77.6936 126.779 78.006 126.601 78.3138L126.236 77.8909C126.454 77.2894 126.798 76.7386 127.27 76.2385C127.754 75.7176 128.444 75.354 129.339 75.1476C130.099 74.9723 130.833 74.99 131.54 75.2006C132.242 75.3943 132.857 75.8219 133.383 76.4832C133.905 77.1277 134.302 78.0411 134.575 79.2234C135.007 81.0983 134.865 82.6787 134.147 83.9648C133.443 85.23 132.255 86.0554 130.583 86.441ZM140.849 73.422L139.25 73.8364L138.922 73.0155L139.966 72.4028C140.114 72.3063 140.215 72.2098 140.27 72.1133C140.318 72.0006 140.33 71.8655 140.304 71.7077L139.943 68.9121L141.03 68.4781L142.221 71.39L145.505 70.0783L145.987 71.2856L142.727 72.5876L145.013 78.3099C145.322 79.0826 145.648 79.5495 145.992 79.7106C146.346 79.8491 146.749 79.8284 147.199 79.6484C147.57 79.5005 147.882 79.3011 148.136 79.0501C148.407 78.7928 148.603 78.4903 148.726 78.1427L149.46 78.4376C149.421 79.0878 149.182 79.659 148.744 80.1512C148.322 80.637 147.773 81.015 147.097 81.285C146.614 81.4779 146.135 81.5855 145.658 81.6078C145.198 81.6237 144.77 81.4867 144.374 81.1968C143.979 80.907 143.639 80.4079 143.356 79.6996L140.849 73.422ZM155.638 71.1032C155.19 70.2419 154.73 69.5437 154.256 69.0084C153.775 68.4578 153.261 68.1092 152.716 67.9627C152.163 67.8008 151.564 67.8878 150.918 68.2235C150.103 68.6472 149.659 69.2783 149.587 70.1167C149.522 70.9317 149.85 72.0314 150.569 73.4155C151.017 74.2768 151.474 74.9868 151.94 75.5454C152.414 76.0806 152.927 76.4292 153.48 76.5911C154.04 76.7296 154.643 76.6309 155.289 76.2952C156.104 75.8715 156.544 75.2521 156.609 74.4371C156.681 73.5987 156.358 72.4874 155.638 71.1032ZM148.681 74.6313C148.066 73.4471 147.77 72.3702 147.793 71.4008C147.817 70.4313 148.083 69.5899 148.591 68.8764C149.114 68.1549 149.799 67.5744 150.645 67.1347C151.645 66.6151 152.568 66.399 153.414 66.4865C154.261 66.574 155.026 66.9186 155.71 67.5203C156.409 68.1141 157.018 68.9108 157.538 69.9105C158.154 71.0947 158.446 72.1639 158.414 73.1179C158.383 74.072 158.113 74.9058 157.604 75.6192C157.096 76.3327 156.412 76.9133 155.55 77.361C154.551 77.8806 153.628 78.0966 152.781 78.0091C151.935 77.9217 151.166 77.5887 150.475 77.0104C149.799 76.424 149.201 75.631 148.681 74.6313ZM171.009 68.8937C171.465 69.5691 171.646 70.3037 171.554 71.0974C171.477 71.8815 171.164 72.6571 170.615 73.4244C170.066 74.1917 169.31 74.9 168.347 75.5492C167.097 76.3923 166.008 76.7923 165.08 76.7491C164.161 76.7203 163.45 76.3323 162.946 75.5849C162.51 74.9382 162.375 74.2875 162.539 73.6329C162.714 72.9925 163.035 72.3683 163.503 71.7601L164.101 71.5766C163.973 71.9763 163.91 72.3949 163.912 72.8324C163.915 73.2699 164.076 73.7257 164.396 74.2C164.754 74.7317 165.215 75.0586 165.778 75.1806C166.356 75.2929 167.104 75.039 168.024 74.4188C168.901 73.8277 169.496 73.1755 169.809 72.4624C170.137 71.7395 170.064 71.026 169.589 70.3218C169.327 69.9338 169.004 69.7023 168.619 69.6274C168.244 69.5669 167.718 69.7644 167.043 70.2198L165.038 71.5717C164.204 72.1338 163.478 72.4357 162.858 72.4774C162.252 72.5094 161.756 72.238 161.368 71.6632C161.009 71.1314 160.906 70.6056 161.057 70.0856C161.222 69.5559 161.467 69.0666 161.792 68.6178L162.419 68.665C162.257 68.9206 162.162 69.1831 162.135 69.4525C162.112 69.6978 162.188 69.9498 162.363 70.2085C162.576 70.5246 162.863 70.6553 163.223 70.6005C163.583 70.5458 164.079 70.3052 164.712 69.8788L166.63 68.5851C167.579 67.9455 168.426 67.667 169.171 67.7496C169.922 67.8081 170.534 68.1895 171.009 68.8937ZM165.077 62.5142C165.745 63.5058 165.941 64.524 165.662 65.5687C165.384 66.6134 164.67 67.5233 163.521 68.2986C162.817 68.7734 162.128 69.0703 161.456 69.1893C160.783 69.3082 160.153 69.2418 159.565 68.9901C158.978 68.7384 158.461 68.282 158.015 67.6209C157.521 66.888 157.279 66.173 157.29 65.4758C157.305 64.7546 157.523 64.0852 157.943 63.4677C158.353 62.8357 158.903 62.2872 159.593 61.822C160.627 61.1243 161.64 60.8281 162.631 60.9334C163.622 61.0388 164.437 61.5657 165.077 62.5142ZM159.623 66.2856C160.137 67.0473 160.68 67.5276 161.253 67.7265C161.831 67.9013 162.465 67.7561 163.155 67.291C163.758 66.884 164.095 66.4062 164.164 65.8578C164.248 65.2997 164.018 64.6183 163.475 63.8135C162.933 63.0087 162.382 62.5332 161.824 62.3872C161.265 62.2411 160.656 62.3909 159.994 62.8367C159.65 63.0693 159.377 63.3471 159.177 63.6703C158.981 63.9694 158.904 64.3352 158.945 64.7676C159 65.1904 159.226 65.6964 159.623 66.2856ZM163.139 61.5005L162.475 61.4463C162.564 60.9266 162.684 60.4692 162.836 60.0742C163.002 59.6695 163.243 59.3606 163.559 59.1474C163.688 59.0602 163.847 58.9848 164.034 58.9213C164.211 58.8435 164.381 58.7705 164.545 58.7023L165.402 59.9742L163.139 61.5005ZM168.148 62.9709C166.963 61.5899 166.379 60.2179 166.397 58.8548C166.416 57.4673 167.011 56.2712 168.182 55.2663C169.076 54.4986 170.009 54.1209 170.979 54.1334C171.949 54.1458 172.835 54.6189 173.636 55.5527C173.749 55.6842 173.884 55.8543 174.04 56.0629C174.185 56.2583 174.312 56.4462 174.421 56.6266L168.799 61.4532L168.155 60.7035L172.298 57.1471C172.255 57.07 172.21 57.0052 172.165 56.9526C172.133 56.8887 172.083 56.8173 172.016 56.7384C171.53 56.1728 170.984 55.8424 170.376 55.7469C169.771 55.6271 169.199 55.7986 168.659 56.2615C168.041 56.7921 167.775 57.4663 167.86 58.2841C167.945 59.1018 168.479 60.0828 169.461 61.2271C170.206 62.0951 170.904 62.6953 171.555 63.0275C172.194 63.3467 172.788 63.4656 173.335 63.3844C173.884 63.2787 174.395 63.0226 174.868 62.6161C175.329 62.221 175.666 61.7488 175.88 61.1997C176.107 60.6393 176.181 60.0733 176.101 59.5018L176.848 59.3744C177.185 60.113 177.224 60.9026 176.963 61.7432C176.715 62.5724 176.177 63.3427 175.349 64.054C174.533 64.754 173.704 65.1579 172.86 65.2657C172.017 65.3491 171.199 65.1946 170.406 64.8022C169.601 64.3967 168.848 63.7863 168.148 62.9709ZM174.016 52.184L172.736 53.2268L172.096 52.6171L172.789 51.6255C172.883 51.4761 172.935 51.3461 172.945 51.2355C172.942 51.113 172.896 50.9854 172.807 50.8527L171.314 48.4616L172.121 47.6144L174.417 49.7651L176.855 47.2045L177.797 48.101L175.376 50.6428L179.838 54.8923C180.441 55.4661 180.932 55.7545 181.312 55.7575C181.692 55.7359 182.049 55.5494 182.384 55.198C182.659 54.9093 182.859 54.5979 182.986 54.2638C183.125 53.9171 183.177 53.5603 183.144 53.1933L183.934 53.1556C184.169 53.7628 184.191 54.3815 183.998 55.0114C183.816 55.6289 183.475 56.2012 182.973 56.7284C182.614 57.1049 182.223 57.4026 181.799 57.6214C181.387 57.8276 180.941 57.8814 180.461 57.7828C179.98 57.6842 179.464 57.3719 178.911 56.8459L174.016 52.184ZM185.717 53.4663L184.947 52.8901L185.487 51.865C185.653 51.5562 185.604 51.3032 185.34 51.106L174.826 43.2418C174.562 43.0445 174.305 43.0691 174.056 43.3156L173.064 44.2945L172.377 43.7806C172.574 43.2568 172.835 42.7053 173.16 42.1259C173.496 41.5327 173.817 41.0157 174.125 40.5751L174.562 40.5121L186.534 49.4664C186.797 49.6636 187.061 49.6442 187.324 49.4082L188.077 48.7052L188.848 49.2814L185.717 53.4663ZM189.953 47.8031L189.183 47.2269L189.644 46.3059C189.7 46.1741 189.724 46.0406 189.717 45.9054C189.71 45.7702 189.63 45.6455 189.477 45.5313L185.625 42.6504C184.792 42.0275 184.08 41.6783 183.487 41.6028C182.904 41.5134 182.364 41.8019 181.865 42.4681C181.502 42.9539 181.241 43.5055 181.082 44.1227C180.924 44.74 180.892 45.3762 180.986 46.0313L180.387 45.4861C180.109 44.5851 180.07 43.7549 180.27 42.9954C180.47 42.2359 180.803 41.5439 181.271 40.9193C182.018 39.9199 182.818 39.4578 183.671 39.5329C184.524 39.6081 185.478 40.0402 186.533 40.8292L190.676 43.9281C190.954 44.1358 191.217 44.1164 191.466 43.8699L192.313 43.042L193.083 43.6182L189.953 47.8031ZM189.305 39.7405C187.714 38.8578 186.689 37.7743 186.232 36.4901C185.768 35.1823 185.91 33.8539 186.658 32.5048C187.23 31.4741 187.973 30.7959 188.887 30.4703C189.801 30.1447 190.796 30.2803 191.872 30.8772C192.024 30.9613 192.209 31.0739 192.428 31.2152C192.632 31.348 192.816 31.4801 192.981 31.6113L189.387 38.0914L188.523 37.6122L191.171 32.8374C191.104 32.7802 191.04 32.7348 190.979 32.7012C190.927 32.6524 190.856 32.6028 190.765 32.5523C190.113 32.1908 189.486 32.0709 188.883 32.1926C188.274 32.2907 187.797 32.6505 187.452 33.2719C187.057 33.9844 187.041 34.7092 187.406 35.4463C187.77 36.1834 188.611 36.9177 189.93 37.6491C190.93 38.2039 191.793 38.524 192.519 38.6093C193.23 38.6863 193.827 38.5915 194.312 38.3252C194.79 38.0353 195.18 37.6175 195.483 37.0718C195.777 36.5412 195.929 35.9813 195.939 35.3921C195.957 34.7877 195.829 34.2313 195.556 33.7231L196.212 33.3438C196.785 33.9192 197.096 34.6462 197.143 35.525C197.2 36.3887 196.963 37.298 196.433 38.2529C195.912 39.1927 195.274 39.8599 194.52 40.2544C193.76 40.6253 192.939 40.7648 192.059 40.6729C191.163 40.5725 190.245 40.2617 189.305 39.7405ZM192.634 26.4687C192.334 26.1026 192.068 25.6563 191.834 25.1298C191.59 24.5807 191.438 24.013 191.379 23.4267C191.325 22.8244 191.404 22.2665 191.614 21.7532C191.686 21.5767 191.792 21.386 191.932 21.1811C192.079 20.9602 192.225 20.7859 192.371 20.6583C192.865 20.8231 193.415 21.0576 194.021 21.3617C194.618 21.6432 195.15 21.9451 195.617 22.2675L195.253 23.1578L193.773 22.8613C193.561 22.8307 193.395 22.8471 193.275 22.9105C193.162 22.9579 193.07 23.0699 192.997 23.2463C192.807 23.7116 192.731 24.2421 192.768 24.8378C192.789 25.427 192.966 26.0239 193.299 26.6285L192.634 26.4687ZM192.787 26.0257L198.924 28.5364C199.26 28.6742 199.514 28.5813 199.684 28.2575L200.595 26.5796L201.461 26.9341L199.138 32.6131L198.247 32.2488L198.512 31.1211C198.595 30.7805 198.476 30.5446 198.156 30.4134L191.634 27.7452C191.281 27.6008 191.015 27.6791 190.836 27.9803L190.199 29.1244L189.333 28.77C189.379 28.2456 189.47 27.7024 189.606 27.1402C189.749 26.5619 189.908 26.0369 190.082 25.5651L190.489 25.3945L192.787 26.0257ZM199.154 20.412L189.621 18.0642L188.13 17.6075L188.807 15.3949L190.299 15.8516L199.512 19.2435L199.154 20.412ZM203.704 21.18C203.588 21.5612 203.386 21.8348 203.099 22.0008C202.801 22.1453 202.478 22.1642 202.13 22.0576C201.766 21.946 201.509 21.7494 201.359 21.468C201.198 21.1649 201.176 20.8228 201.293 20.4416C201.41 20.0604 201.619 19.7893 201.923 19.6283C202.209 19.4622 202.535 19.435 202.899 19.5467C203.247 19.6532 203.502 19.8581 203.663 20.1611C203.807 20.4592 203.821 20.7988 203.704 21.18Z" fill="black" fill-opacity="0.85"/>
</svg>
