<svg width="534" height="579" viewBox="0 0 534 579" fill="none" xmlns="http://www.w3.org/2000/svg">
<path d="M291.965 406.499L211.965 412.999L157.465 308.999C155.465 303.479 160.465 302.666 161.965 302.499L321.465 289.999C327.965 289.999 331.465 289.999 329.965 297.999L291.965 406.499Z" fill="black"/>
<circle cx="238.599" cy="219.499" r="53.5" fill="black"/>
<path d="M209.099 211.499H230.099" stroke="white" stroke-width="3" stroke-linecap="round"/>
<path d="M248.099 211.499H269.099" stroke="white" stroke-width="3" stroke-linecap="round"/>
<rect x="226.099" y="226.999" width="27" height="13" rx="5" fill="white"/>
<path d="M277.534 196.039C277.793 198.822 276.247 203.783 274.397 205.481C272.265 204.155 269.828 199.564 269.568 196.781C269.309 193.998 270.882 191.575 273.081 191.37C275.281 191.165 277.274 193.255 277.534 196.039Z" fill="white"/>
<path d="M275.333 193.101C275.639 193.463 276.298 194.545 276.49 195.972" stroke="black" stroke-linecap="round"/>
<path d="M222.544 264.504L219.425 279.218L222.342 286.055L218.56 289.789L216.636 299.423L207.153 299.995" stroke="black" stroke-width="3" stroke-linecap="round"/>
<path d="M255.239 265.467L259.998 278.275L257.743 284.685L262.009 287.621L265.003 296.018L274.762 295.531" stroke="black" stroke-width="3" stroke-linecap="round"/>
<path d="M191.974 231.712C183.679 232.084 166.155 234.038 162.418 238.883" stroke="black" stroke-width="3" stroke-linecap="round"/>
<path d="M285.099 230.999C290.265 237.499 300.299 251.999 299.099 257.999" stroke="black" stroke-width="3" stroke-linecap="round"/>
<path d="M208.999 339.681L223.386 345.004L211.999 355.681" stroke="white" stroke-width="3" stroke-linecap="round"/>
<path d="M256.468 332.852L245.586 342.507L260.004 348.49" stroke="white" stroke-width="3" stroke-linecap="round"/>
<path d="M226.999 360.498C228.234 363.092 230.01 365.594 236.032 362.984C240.585 360.688 240.565 354.987 248.08 359.653" stroke="white" stroke-width="3" stroke-linecap="round"/>
<path d="M240.999 407.999V423.499V439.499L235.499 444.999" stroke="black" stroke-width="3" stroke-linecap="round"/>
<path d="M275.998 403.005L282.53 417.062L289.273 431.571L300.213 432.552" stroke="black" stroke-width="3" stroke-linecap="round"/>
<path d="M197.999 373.499L160.499 361.999" stroke="black" stroke-width="3" stroke-linecap="round"/>
<path d="M303.995 365.499L341.495 353.999" stroke="black" stroke-width="3" stroke-linecap="round"/>
<rect x="159.722" y="357.999" width="6" height="5" rx="1" transform="rotate(48.125 159.722 357.999)" fill="black"/>
<rect width="6" height="5" rx="1" transform="matrix(-0.667507 0.744603 0.744603 0.667507 342.271 349.999)" fill="black"/>
<path d="M267.855 552.144C270.723 554.384 274.909 553.575 276.737 550.428L344.088 434.425C346.674 429.971 342.817 424.544 337.761 425.521L164.69 458.963C159.634 459.94 158.077 466.414 162.135 469.583L267.855 552.144Z" fill="black"/>
<circle cx="240.263" cy="478.665" r="8" transform="rotate(-13.683 240.263 478.665)" fill="white"/>
<circle cx="239.684" cy="474.174" r="3.5" transform="rotate(-13.683 239.684 474.174)" fill="black"/>
<circle cx="271.355" cy="471.095" r="8" transform="rotate(-13.683 271.355 471.095)" fill="white"/>
<circle cx="270.775" cy="466.605" r="3.5" transform="rotate(-13.683 270.775 466.605)" fill="black"/>
<line x1="0.90287" y1="572.08" x2="533.782" y2="537.502" stroke="black" stroke-width="3"/>
<path d="M258.503 487.184C259.066 486.014 260.578 485.684 261.578 486.511L265.986 490.153C267.271 491.216 266.768 493.292 265.139 493.649L258.25 495.157C256.621 495.513 255.297 493.837 256.021 492.335L258.503 487.184Z" fill="white"/>
<path d="M282.232 92.3684C290.741 94.3411 305.556 88.7609 303.305 72.6159" stroke="black" stroke-width="2"/>
<path d="M181.927 139.283C181.781 139.816 181.23 140.129 180.698 139.983C180.165 139.836 179.852 139.286 179.999 138.753L181.927 139.283ZM206.669 121.614L206.324 122.553C205.634 122.299 204.067 122.056 201.964 122.163C199.89 122.268 197.379 122.71 194.821 123.748C189.741 125.81 184.412 130.247 181.927 139.283L180.963 139.018L179.999 138.753C182.659 129.08 188.449 124.177 194.069 121.895C196.861 120.762 199.596 120.281 201.863 120.166C204.101 120.052 205.971 120.292 207.015 120.676L206.669 121.614Z" fill="black"/>
<path d="M238.632 152.728L237.634 152.789C237.639 153.065 237.757 153.321 237.961 153.498L238.632 152.728ZM241.243 154.992L241.832 155.773C242.074 155.585 242.224 155.301 242.24 155.001C242.256 154.7 242.136 154.414 241.915 154.221L241.243 154.992ZM238.705 156.966L238.115 156.184C237.901 156.351 237.758 156.593 237.718 156.857C237.678 157.122 237.743 157.387 237.9 157.594L238.705 156.966ZM241.336 160.441L241.925 161.223C242.139 161.056 242.282 160.814 242.322 160.55C242.363 160.285 242.297 160.02 242.14 159.813L241.336 160.441ZM238.797 162.416L238.208 161.634C237.982 161.81 237.835 162.07 237.805 162.351C237.774 162.632 237.863 162.907 238.048 163.11L238.797 162.416ZM241.418 165.285L241.727 166.223C242.046 166.105 242.292 165.835 242.381 165.507C242.47 165.178 242.389 164.834 242.168 164.591L241.418 165.285ZM236.488 166.06C235.964 166.254 235.677 166.831 235.848 167.349C236.018 167.867 236.582 168.13 237.106 167.935L236.488 166.06ZM238.509 145.462L237.511 145.523L237.634 152.789L238.632 152.728L239.631 152.666L239.507 145.4L238.509 145.462ZM238.632 152.728L237.961 153.498L240.571 155.762L241.243 154.992L241.915 154.221L239.304 151.957L238.632 152.728ZM241.243 154.992L240.654 154.21L238.115 156.184L238.705 156.966L239.294 157.748L241.832 155.773L241.243 154.992ZM238.705 156.966L237.9 157.594L240.531 161.069L241.336 160.441L242.14 159.813L239.509 156.338L238.705 156.966ZM241.336 160.441L240.746 159.66L238.208 161.634L238.797 162.416L239.387 163.197L241.925 161.223L241.336 160.441ZM238.797 162.416L238.048 163.11L240.669 165.979L241.418 165.285L242.168 164.591L239.547 161.721L238.797 162.416ZM241.418 165.285L241.109 164.347L236.488 166.06L236.797 166.998L237.106 167.935L241.727 166.223L241.418 165.285Z" fill="black"/>
<path d="M278.09 138.106L278.674 137.309C278.99 137.523 279.155 137.888 279.101 138.252L278.09 138.106ZM277.585 141.524L277.647 142.501C277.341 142.516 277.043 142.399 276.835 142.181C276.627 141.963 276.531 141.668 276.574 141.378L277.585 141.524ZM280.797 141.368L280.735 140.391C281.005 140.378 281.272 140.468 281.475 140.643C281.677 140.817 281.801 141.061 281.817 141.32L280.797 141.368ZM281.066 145.718L281.128 146.695C280.857 146.709 280.591 146.618 280.388 146.444C280.185 146.269 280.062 146.026 280.046 145.766L281.066 145.718ZM284.278 145.562L284.216 144.585C284.502 144.571 284.782 144.673 284.988 144.866C285.194 145.059 285.307 145.326 285.299 145.6L284.278 145.562ZM284.16 149.446L284.895 150.133C284.602 150.421 284.152 150.505 283.764 150.344C283.375 150.184 283.127 149.812 283.139 149.408L284.16 149.446ZM289.698 142.595C290.09 142.21 290.736 142.205 291.142 142.584C291.548 142.963 291.56 143.582 291.168 143.967L289.698 142.595ZM268.516 131.621L269.1 130.824L278.674 137.309L278.09 138.106L277.506 138.903L267.931 132.417L268.516 131.621ZM278.09 138.106L279.101 138.252L278.596 141.671L277.585 141.524L276.574 141.378L277.078 137.959L278.09 138.106ZM277.585 141.524L277.523 140.548L280.735 140.391L280.797 141.368L280.859 142.345L277.647 142.501L277.585 141.524ZM280.797 141.368L281.817 141.32L282.085 145.671L281.066 145.718L280.046 145.766L279.777 141.416L280.797 141.368ZM281.066 145.718L281.004 144.742L284.216 144.585L284.278 145.562L284.34 146.539L281.128 146.695L281.066 145.718ZM284.278 145.562L285.299 145.6L285.181 149.485L284.16 149.446L283.139 149.408L283.257 145.524L284.278 145.562ZM284.16 149.446L283.425 148.76L289.698 142.595L290.433 143.281L291.168 143.967L284.895 150.133L284.16 149.446Z" fill="black"/>
<path d="M208.509 35.1667C209.258 26.7762 219.411 23.0139 225.446 28.8904L249.929 52.729C252.513 55.2452 256.253 56.1745 259.715 55.1608L293.799 45.1807C302.688 42.578 310.033 52.4141 305.013 60.1975L288.141 86.3552C285.917 89.8027 286.024 94.2589 288.412 97.5951L305.984 122.151C311.088 129.285 305.189 139.066 296.497 137.879L259.346 132.802C256.038 132.35 252.724 133.578 250.509 136.076L225.638 164.137C219.819 170.702 208.97 167.127 208.193 158.389L205.52 128.312C205.157 124.226 202.334 120.776 198.401 119.61L168.557 110.763C159.677 108.131 158.839 95.8837 167.277 92.0656L199.635 77.4244C202.921 75.9374 205.152 72.7958 205.473 69.2029L208.509 35.1667Z" fill="black"/>
<ellipse cx="2.59163" cy="2.40368" rx="2.59163" ry="2.40368" transform="matrix(0.937689 -0.347477 -0.347477 -0.937689 179.533 143.309)" fill="black"/>
<ellipse cx="2.58812" cy="2.40746" rx="2.58812" ry="2.40746" transform="matrix(0.953854 0.300272 0.320021 -0.94741 299.691 74.9741)" fill="black"/>
<path d="M225.585 85.3824C226.026 84.2028 227.341 83.6045 228.521 84.0464C229.701 84.4883 230.299 85.8033 229.857 86.9829L227.173 94.1461L234.358 98.0956C235.426 98.6824 235.816 100.024 235.229 101.091C234.642 102.158 233.3 102.547 232.233 101.961L225.61 98.3194L222.985 105.327C222.543 106.507 221.229 107.105 220.049 106.663C218.87 106.221 218.272 104.907 218.714 103.728L221.57 96.0986L214.935 92.4512C213.868 91.8644 213.478 90.5239 214.065 89.4566C214.651 88.3892 215.993 87.9993 217.06 88.5861L223.134 91.9248L225.585 85.3824Z" fill="white"/>
<path d="M255.59 74.2633C256.032 73.0837 257.347 72.4854 258.527 72.9272C259.706 73.3691 260.305 74.6842 259.863 75.8638L257.179 83.0269L264.364 86.9765C265.432 87.5633 265.822 88.9046 265.235 89.972C264.648 91.0392 263.306 91.4283 262.239 90.8416L255.616 87.2003L252.991 94.2083C252.549 95.3878 251.235 95.9858 250.055 95.544C248.876 95.1021 248.278 93.788 248.719 92.6084L251.576 84.9794L244.941 81.332C243.874 80.7452 243.484 79.4047 244.071 78.3374C244.657 77.27 245.999 76.8801 247.066 77.4669L253.14 80.8057L255.59 74.2633Z" fill="white"/>
<ellipse cx="246.841" cy="107.66" rx="3.5" ry="5" transform="rotate(-20.3331 246.841 107.66)" fill="#FFFEFE"/>
</svg>
