<svg width="166" height="74" viewBox="0 0 166 74" fill="none" xmlns="http://www.w3.org/2000/svg">
<path d="M31.582 40.9336C32.1758 40.9336 32.4727 41.2227 32.4727 41.8008C32.4727 42.5195 31.6094 43.4062 29.8828 44.4609C28.1641 45.5078 26.5 46.0312 24.8906 46.0312C23.4688 46.0312 22.1602 45.5664 20.9648 44.6367C19.7695 43.707 19.1719 42.3516 19.1719 40.5703C19.1719 38.7578 19.7969 36.7461 21.0469 34.5352C22.2969 32.3242 23.8438 30.5234 25.6875 29.1328C27.5391 27.7422 29.3438 27.0469 31.1016 27.0469C32.1484 27.0469 32.9844 27.3594 33.6094 27.9844C34.2344 28.6094 34.5469 29.3398 34.5469 30.1758C34.5469 31.082 34.4766 31.7344 34.3359 32.1328C34.1953 32.5234 33.8945 32.8594 33.4336 33.1406C32.9727 33.4219 32.5977 33.5625 32.3086 33.5625C32.0117 33.5625 31.7539 33.457 31.5352 33.2461C31.3164 33.0352 31.207 32.75 31.207 32.3906C31.207 32.1406 31.2734 31.7773 31.4062 31.3008C31.5312 30.8242 31.5938 30.4258 31.5938 30.1055C31.5938 29.5664 31.4102 29.2969 31.043 29.2969C29.918 29.2969 28.6562 29.8984 27.2578 31.1016C25.8594 32.3047 24.6602 33.8008 23.6602 35.5898C22.668 37.3711 22.1719 38.9453 22.1719 40.3125C22.1719 41.2188 22.4336 41.9844 22.957 42.6094C23.4805 43.2344 24.2461 43.5469 25.2539 43.5469C25.8477 43.5469 26.5938 43.3867 27.4922 43.0664C28.3984 42.7461 29.2344 42.3125 30 41.7656C30.7734 41.2109 31.3008 40.9336 31.582 40.9336ZM40.9688 45.8086C39.6484 45.8086 38.4766 45.1758 37.4531 43.9102C36.4297 42.6367 35.918 41.3242 35.918 39.9727C35.918 38.3789 36.4062 36.5898 37.3828 34.6055C38.3594 32.6211 39.6172 31 41.1562 29.7422C42.7031 28.4844 44.3164 27.8555 45.9961 27.8555C47.3008 27.8555 48.375 28.0117 49.2188 28.3242C50.0703 28.6367 50.8516 29.0977 51.5625 29.707C52.2812 30.3086 52.7578 30.9336 52.9922 31.582C53.2344 32.2227 53.3555 33.1055 53.3555 34.2305C53.3555 35.2227 53.0352 36.4297 52.3945 37.8516C51.7617 39.2656 50.8359 40.6016 49.6172 41.8594C48.4062 43.1172 47.1719 44.0898 45.9141 44.7773C44.6562 45.4648 43.0078 45.8086 40.9688 45.8086ZM38.8828 39.8672C38.8828 40.8281 39.168 41.6289 39.7383 42.2695C40.3086 42.9102 40.9648 43.2305 41.707 43.2305C43.8008 43.2305 45.7656 42.2266 47.6016 40.2188C49.4375 38.2031 50.3555 36.0664 50.3555 33.8086C50.3555 33.0117 50.2031 32.3711 49.8984 31.8867C49.5938 31.3945 49.0742 30.9883 48.3398 30.668C47.6133 30.3398 46.832 30.1758 45.9961 30.1758C44.4883 30.1758 42.9258 31.2656 41.3086 33.4453C39.6914 35.625 38.8828 37.7656 38.8828 39.8672ZM56.0391 41.1445L56.8945 37.1953C57.5508 34.0703 57.8945 31.8906 57.9258 30.6562C57.9492 30.0625 57.9922 29.6602 58.0547 29.4492C58.125 29.2305 58.3047 29.0234 58.5938 28.8281C58.8906 28.625 59.2266 28.5234 59.6016 28.5234C59.8438 28.5234 60.1211 28.6016 60.4336 28.7578C60.7461 28.9141 61.0078 29.4102 61.2188 30.2461C61.5469 31.5977 62.3945 33.3945 63.7617 35.6367C65.1289 37.8789 66.3594 39.6758 67.4531 41.0273C67.75 39.6836 68.0742 37.9375 68.4258 35.7891C68.6758 34.2578 68.9102 32.9297 69.1289 31.8047C69.3086 30.8672 69.418 30.0352 69.457 29.3086C69.4961 28.6211 69.6992 28.1602 70.0664 27.9258C70.4414 27.6914 70.8164 27.5742 71.1914 27.5742C71.5117 27.5742 71.7852 27.7539 72.0117 28.1133C72.2461 28.4648 72.3633 28.9062 72.3633 29.4375C72.3633 29.8594 72.25 30.457 72.0234 31.2305C71.5312 33.0195 71.0508 35.3281 70.582 38.1562C70.1133 40.9844 69.8789 42.5977 69.8789 42.9961V43.3945C69.8789 43.8477 69.8398 44.1836 69.7617 44.4023C69.6836 44.6211 69.4922 44.8242 69.1875 45.0117C68.8906 45.207 68.5 45.3047 68.0156 45.3047C67.7266 45.3047 67.5156 45.2773 67.3828 45.2227C67.2578 45.168 67.0859 45.0117 66.8672 44.7539C66.6484 44.4883 66.418 44.1406 66.1758 43.7109C65.8008 43.0625 65.5234 42.6211 65.3438 42.3867C63.4766 40.0117 61.6797 37.2422 59.9531 34.0781C59.7188 35.0469 59.3594 37.3125 58.875 40.875L58.7344 41.9297C58.6719 42.2969 58.6172 42.8281 58.5703 43.5234C58.5156 44.3594 58.3125 44.9609 57.9609 45.3281C57.6172 45.6953 57.2852 45.8789 56.9648 45.8789C56.457 45.8789 56.0938 45.7461 55.875 45.4805C55.6641 45.2227 55.5586 44.6992 55.5586 43.9102C55.5586 43.2852 55.7148 42.3867 56.0273 41.2148L56.0391 41.1445ZM83.8945 31.1016C83.8242 31.1641 83.7617 31.3398 83.707 31.6289C83.6523 31.918 83.4922 33.2617 83.2266 35.6602C82.9688 38.0586 82.8398 39.9766 82.8398 41.4141C82.8398 42.0078 82.9102 42.6719 83.0508 43.4062C83.0898 43.5156 83.1094 43.6406 83.1094 43.7812C83.1094 44.2031 82.9844 44.582 82.7344 44.918C82.4922 45.2539 82.1797 45.4219 81.7969 45.4219C81.5391 45.4219 81.2109 45.293 80.8125 45.0352C80.4219 44.7852 80.1875 44.3555 80.1094 43.7461C80.0312 43.1367 79.9922 42.3438 79.9922 41.3672C79.9922 40.0312 80.1484 38.043 80.4609 35.4023C80.7734 32.7617 80.9609 31.4141 81.0234 31.3594C80.8047 31.3594 79.9297 31.418 78.3984 31.5352C76.8594 31.6523 75.9648 31.7109 75.7148 31.7109C74.9102 31.7109 74.3516 31.6094 74.0391 31.4062C73.7266 31.1953 73.5703 30.8672 73.5703 30.4219C73.5703 30.0234 73.7344 29.7188 74.0625 29.5078C74.3984 29.2969 75.2422 29.1914 76.5938 29.1914C78.8438 29.1914 81.0508 29.043 83.2148 28.7461C85.6523 28.3711 87.5 28.1836 88.7578 28.1836C90.1641 28.1836 91.0195 28.3516 91.3242 28.6875C91.6289 29.0156 91.7812 29.3438 91.7812 29.6719C91.7812 30.4297 91.4453 30.8086 90.7734 30.8086C90.5547 30.8086 90.2031 30.7852 89.7188 30.7383C89.2266 30.6992 88.6523 30.6797 87.9961 30.6797C86.0195 30.6797 84.6523 30.8203 83.8945 31.1016ZM93.2109 41.2148C93.0781 41.543 92.668 42.2695 91.9805 43.3945C91.3008 44.5117 90.8281 45.1328 90.5625 45.2578C90.2969 45.3906 90.0625 45.457 89.8594 45.457C89.5781 45.457 89.2383 45.3047 88.8398 45C88.4492 44.6875 88.2539 44.3672 88.2539 44.0391C88.2539 43.7344 89.2344 42.0898 91.1953 39.1055C92.2656 37.4727 93.2422 35.8555 94.125 34.2539C95.8984 31.0195 96.9805 29.1406 97.3711 28.6172C97.7695 28.0859 98.1758 27.8203 98.5898 27.8203C99.2539 27.8203 99.7344 27.9922 100.031 28.3359C100.18 28.4453 100.254 28.707 100.254 29.1211C100.254 29.4258 100.227 29.6719 100.172 29.8594C101.602 34.2188 102.719 37.3047 103.523 39.1172C104.336 40.9219 105.148 42.2305 105.961 43.043C106.367 43.4492 106.613 43.7227 106.699 43.8633C106.793 44.0039 106.84 44.1914 106.84 44.4258C106.84 44.8555 106.684 45.2148 106.371 45.5039C106.059 45.8008 105.688 45.9492 105.258 45.9492C104.664 45.9492 104.059 45.6055 103.441 44.918C102.832 44.2305 102.254 43.2852 101.707 42.082C101.168 40.8789 100.898 40.2031 100.898 40.0547C100.898 40.0234 100.879 40.0078 100.84 40.0078C100.418 40.0078 99.4766 40.1562 98.0156 40.4531C96.5625 40.75 95.3945 41.0391 94.5117 41.3203C94.2852 41.3906 94.0859 41.4258 93.9141 41.4258C93.6094 41.4258 93.375 41.3555 93.2109 41.2148ZM99.9609 37.6289C99.7734 37.168 99.2188 35.5273 98.2969 32.707C98.2109 32.4492 98.1523 32.2852 98.1211 32.2148L94.793 38.543C95.2852 38.457 95.7891 38.3789 96.3047 38.3086C96.6484 38.2695 97.5234 38.1055 98.9297 37.8164C99.2734 37.7461 99.6172 37.6836 99.9609 37.6289ZM120.434 40.9336C121.027 40.9336 121.324 41.2227 121.324 41.8008C121.324 42.5195 120.461 43.4062 118.734 44.4609C117.016 45.5078 115.352 46.0312 113.742 46.0312C112.32 46.0312 111.012 45.5664 109.816 44.6367C108.621 43.707 108.023 42.3516 108.023 40.5703C108.023 38.7578 108.648 36.7461 109.898 34.5352C111.148 32.3242 112.695 30.5234 114.539 29.1328C116.391 27.7422 118.195 27.0469 119.953 27.0469C121 27.0469 121.836 27.3594 122.461 27.9844C123.086 28.6094 123.398 29.3398 123.398 30.1758C123.398 31.082 123.328 31.7344 123.188 32.1328C123.047 32.5234 122.746 32.8594 122.285 33.1406C121.824 33.4219 121.449 33.5625 121.16 33.5625C120.863 33.5625 120.605 33.457 120.387 33.2461C120.168 33.0352 120.059 32.75 120.059 32.3906C120.059 32.1406 120.125 31.7773 120.258 31.3008C120.383 30.8242 120.445 30.4258 120.445 30.1055C120.445 29.5664 120.262 29.2969 119.895 29.2969C118.77 29.2969 117.508 29.8984 116.109 31.1016C114.711 32.3047 113.512 33.8008 112.512 35.5898C111.52 37.3711 111.023 38.9453 111.023 40.3125C111.023 41.2188 111.285 41.9844 111.809 42.6094C112.332 43.2344 113.098 43.5469 114.105 43.5469C114.699 43.5469 115.445 43.3867 116.344 43.0664C117.25 42.7461 118.086 42.3125 118.852 41.7656C119.625 41.2109 120.152 40.9336 120.434 40.9336ZM134.145 31.1016C134.074 31.1641 134.012 31.3398 133.957 31.6289C133.902 31.918 133.742 33.2617 133.477 35.6602C133.219 38.0586 133.09 39.9766 133.09 41.4141C133.09 42.0078 133.16 42.6719 133.301 43.4062C133.34 43.5156 133.359 43.6406 133.359 43.7812C133.359 44.2031 133.234 44.582 132.984 44.918C132.742 45.2539 132.43 45.4219 132.047 45.4219C131.789 45.4219 131.461 45.293 131.062 45.0352C130.672 44.7852 130.438 44.3555 130.359 43.7461C130.281 43.1367 130.242 42.3438 130.242 41.3672C130.242 40.0312 130.398 38.043 130.711 35.4023C131.023 32.7617 131.211 31.4141 131.273 31.3594C131.055 31.3594 130.18 31.418 128.648 31.5352C127.109 31.6523 126.215 31.7109 125.965 31.7109C125.16 31.7109 124.602 31.6094 124.289 31.4062C123.977 31.1953 123.82 30.8672 123.82 30.4219C123.82 30.0234 123.984 29.7188 124.312 29.5078C124.648 29.2969 125.492 29.1914 126.844 29.1914C129.094 29.1914 131.301 29.043 133.465 28.7461C135.902 28.3711 137.75 28.1836 139.008 28.1836C140.414 28.1836 141.27 28.3516 141.574 28.6875C141.879 29.0156 142.031 29.3438 142.031 29.6719C142.031 30.4297 141.695 30.8086 141.023 30.8086C140.805 30.8086 140.453 30.7852 139.969 30.7383C139.477 30.6992 138.902 30.6797 138.246 30.6797C136.27 30.6797 134.902 30.8203 134.145 31.1016Z" fill="black"/>
<path d="M83 1C105.813 1 126.418 5.12381 141.282 11.75C148.716 15.0637 154.67 18.9839 158.752 23.2861C162.829 27.5832 165 32.2157 165 37C165 41.7843 162.829 46.4168 158.752 50.7139C154.67 55.0161 148.716 58.9363 141.282 62.25C126.418 68.8762 105.813 73 83 73C60.1872 73 39.5822 68.8762 24.7178 62.25C17.2844 58.9363 11.3301 55.0161 7.24805 50.7139C3.17097 46.4168 1 41.7843 1 37C1 32.2157 3.17097 27.5832 7.24805 23.2861C11.3301 18.9839 17.2844 15.0637 24.7178 11.75C39.5822 5.12381 60.1872 1 83 1Z" stroke="black" stroke-width="2"/>
</svg>
