<svg width="72" height="48" viewBox="0 0 72 48" fill="none" xmlns="http://www.w3.org/2000/svg">
<path d="M67.2614 10.9545C68.6104 10.8449 68.6708 8.80315 68.3363 7.47247C71.1219 8.33239 71.6431 7.46409 71.6066 7.01444C72.0146 5.35184 69.8318 4.66924 68.6894 4.53577C70.7162 2.74163 69.8009 1.50341 69.0899 1.10857C67.4273 0.700532 65.8088 2.50675 65.2074 3.46087C62.786 0.398768 61.205 1.76191 61.0982 1.95028C60.5807 2.86354 61.8037 5.0613 62.7761 5.88752C59.6701 7.76936 60.7913 9.018 60.9246 9.24036C61.8108 10.7185 64.1742 9.16856 65.0187 8.421C65.9125 11.0641 67.2614 10.9545 67.2614 10.9545Z" fill="black"/>
<path d="M56.8916 8.66604C51.2471 11.6141 40.6258 20.715 43.297 33.5334M43.297 33.5334C43.6258 37.5803 50.6747 45.5012 54.9108 42.7736C58.1366 40.6966 59.0325 33.3411 43.297 33.5334ZM43.297 33.5334C33.5198 32.97 11.8148 33.7833 3.21197 41.5433" stroke="black" stroke-width="2.32996" stroke-linecap="round"/>
</svg>
