<svg width="109" height="48" viewBox="0 0 109 48" fill="none" xmlns="http://www.w3.org/2000/svg">
<ellipse cx="54.5" cy="25.5" rx="54.5" ry="20.5" fill="white"/>
<path d="M33.9501 31.809V21.5231H35.093V22.7073H35.2307C35.4785 22.308 35.9467 21.4268 37.3925 21.4268C39.2651 21.4268 40.5732 22.9139 40.5732 25.2822C40.5732 27.6506 39.2651 29.1515 37.4063 29.1515C35.9742 29.1515 35.4785 28.2702 35.2307 27.8571H35.1343V31.809H33.9501ZM35.1067 25.2547C35.1067 26.9346 35.8641 28.0912 37.241 28.0912C38.6593 28.0912 39.3891 26.852 39.3891 25.2547C39.3891 23.6987 38.673 22.487 37.241 22.487C35.8365 22.487 35.1067 23.6023 35.1067 25.2547ZM42.1154 29V21.5231H43.2583V22.666H43.3409C43.6163 21.9087 44.3874 21.3992 45.2687 21.3992C45.4477 21.3992 45.7506 21.413 45.8883 21.4268V22.6247C45.8057 22.5972 45.4752 22.5421 45.1723 22.5421C44.0982 22.5421 43.2996 23.2856 43.2996 24.2908V29H42.1154ZM49.8539 29.1515C47.816 29.1515 46.4391 27.623 46.4391 25.296C46.4391 22.9689 47.816 21.4268 49.8539 21.4268C51.878 21.4268 53.2412 22.9689 53.2412 25.296C53.2412 27.623 51.878 29.1515 49.8539 29.1515ZM49.8539 28.105C51.3548 28.105 52.057 26.7831 52.057 25.296C52.057 23.8089 51.3548 22.4732 49.8539 22.4732C48.3255 22.4732 47.6232 23.8089 47.6232 25.296C47.6232 26.7831 48.3255 28.105 49.8539 28.105ZM54.7972 21.5231H55.9813V29.537C55.9813 30.9415 55.2653 31.809 53.8058 31.809H53.5579V30.7074H53.792C54.4805 30.7074 54.7972 30.2806 54.7972 29.537V21.5231ZM55.3755 20.2839C54.9211 20.2839 54.5493 19.9396 54.5493 19.499C54.5493 19.0584 54.9211 18.7142 55.3755 18.7142C55.8299 18.7142 56.2154 19.0584 56.2154 19.499C56.2154 19.9396 55.8299 20.2839 55.3755 20.2839ZM61.0072 29.1515C58.8454 29.1515 57.5098 27.623 57.5098 25.3235C57.5098 23.024 58.8592 21.4268 60.8971 21.4268C62.4668 21.4268 64.1191 22.3906 64.1191 25.1583V25.654H58.6939C58.749 27.2375 59.6716 28.105 61.0072 28.105C61.9022 28.105 62.4668 27.7194 62.7422 27.2513H64.009C63.651 28.3804 62.5494 29.1515 61.0072 29.1515ZM58.7077 24.6488H62.9212C62.9212 23.3958 62.1226 22.4732 60.8971 22.4732C59.6027 22.4732 58.7766 23.4922 58.7077 24.6488ZM68.7182 29.1515C66.5977 29.1515 65.3033 27.5404 65.3033 25.296C65.3033 23.024 66.6527 21.4268 68.6906 21.4268C70.2879 21.4268 71.4721 22.3631 71.6648 23.7813H70.4807C70.3154 23.0929 69.7096 22.4732 68.7182 22.4732C67.3825 22.4732 66.4875 23.5748 66.4875 25.2547C66.4875 26.9896 67.355 28.0912 68.7182 28.0912C69.5994 28.0912 70.2741 27.623 70.4807 26.7969H71.6648C71.4721 28.1325 70.3843 29.1515 68.7182 29.1515ZM76.3878 21.5231V22.5146H74.8181V26.852C74.8181 27.8158 75.2862 27.9673 75.7957 27.9673C76.016 27.9673 76.3189 27.9535 76.4979 27.9397V29.0413C76.3189 29.0688 76.016 29.0964 75.6718 29.0964C74.6804 29.0964 73.6201 28.4768 73.6201 27.1549V22.5146H72.491V21.5231H73.6201V19.7331H74.8181V21.5231H76.3878Z" fill="black"/>
</svg>
