<svg width="792" height="74" viewBox="0 0 792 74" fill="none" xmlns="http://www.w3.org/2000/svg">
<path d="M0 0H792V63.116C792 68.6388 787.523 73.116 782 73.116H10C4.47717 73.116 0 68.6388 0 63.116V0Z" fill="black" fill-opacity="0.62"/>
<path d="M337.022 29.9845C336.789 27.7713 335.003 26.4511 332.168 26.4511C329.217 26.4511 327.587 27.8101 327.548 29.6738C327.509 31.6929 329.644 32.6248 332.052 33.1684L334.576 33.7896C339.39 34.8768 343.001 37.323 343.001 42.0212C343.001 47.1853 338.963 50.4469 332.129 50.4469C325.335 50.4469 320.986 47.3018 320.83 41.2834H326.499C326.694 44.1179 328.946 45.5545 332.052 45.5545C335.119 45.5545 337.099 44.1179 337.099 42.0212C337.099 40.1186 335.352 39.2255 332.285 38.449L329.217 37.7113C324.48 36.5464 321.568 34.1779 321.568 30.0621C321.568 24.9368 326.072 21.5588 332.207 21.5588C338.42 21.5588 342.535 25.0145 342.613 29.9845H337.022ZM352.437 37.8666V50.0586H346.69V21.947H352.281V32.6636H352.514C353.485 30.2174 355.62 28.7031 358.804 28.7031C363.192 28.7031 366.104 31.6541 366.104 36.6241V50.0586H360.358V37.6336C360.358 35.0321 358.96 33.479 356.552 33.479C354.145 33.479 352.437 35.0709 352.437 37.8666ZM370.53 50.0586V28.9749H376.277V50.0586H370.53ZM373.404 26.2181C371.656 26.2181 370.259 24.898 370.259 23.306C370.259 21.6752 371.656 20.3551 373.404 20.3551C375.112 20.3551 376.51 21.6752 376.51 23.306C376.51 24.898 375.112 26.2181 373.404 26.2181ZM386.489 37.8666V50.0586H380.742V28.9749H386.217V32.6636H386.45C387.421 30.2174 389.673 28.7031 392.779 28.7031C397.167 28.7031 400.079 31.6929 400.04 36.6241V50.0586H394.332V37.6336C394.332 35.0321 392.895 33.479 390.527 33.479C388.12 33.479 386.489 35.0709 386.489 37.8666ZM410.252 37.8666V50.0586H404.505V21.947H410.096V32.6636H410.329C411.3 30.2174 413.436 28.7031 416.619 28.7031C421.007 28.7031 423.919 31.6541 423.919 36.6241V50.0586H418.173V37.6336C418.173 35.0321 416.775 33.479 414.367 33.479C411.96 33.479 410.252 35.0709 410.252 37.8666ZM427.336 44.1567C427.336 39.4585 431.141 37.9054 435.179 37.6724C436.694 37.5754 439.528 37.4395 440.421 37.4006V35.6922C440.382 33.9449 439.179 32.8966 437.043 32.8966C435.102 32.8966 433.859 33.7896 433.549 35.2263H428.074C428.423 31.5764 431.607 28.7031 437.198 28.7031C441.78 28.7031 446.129 30.761 446.129 35.8475V50.0586H440.693V47.1465H440.538C439.489 49.0879 437.509 50.4469 434.364 50.4469C430.326 50.4469 427.336 48.3502 427.336 44.1567ZM432.85 44.0014C432.85 45.6322 434.17 46.4864 435.995 46.4864C438.596 46.4864 440.46 44.7391 440.421 42.5259V40.9728C439.547 41.0116 437.101 41.1475 436.111 41.2446C434.131 41.4388 432.85 42.3706 432.85 44.0014ZM456.263 37.8666V50.0586H450.516V28.9749H455.991V32.6636H456.224C457.195 30.2174 459.447 28.7031 462.553 28.7031C466.941 28.7031 469.853 31.6929 469.814 36.6241V50.0586H464.106V37.6336C464.106 35.0321 462.67 33.479 460.301 33.479C457.894 33.479 456.263 35.0709 456.263 37.8666Z" fill="#E9E9E9"/>
</svg>
