<svg width="109" height="48" viewBox="0 0 109 48" fill="none" xmlns="http://www.w3.org/2000/svg">
<ellipse cx="54.5" cy="25.5" rx="54.5" ry="20.5" fill="black"/>
<path d="M32.6898 32.384L35.0022 21.4424H36.0174L35.8482 22.8524H35.9046C36.1302 22.5704 36.3699 22.3166 36.6237 22.091C36.8775 21.856 37.1548 21.668 37.4556 21.527C37.7564 21.386 38.0807 21.3155 38.4285 21.3155C38.8327 21.3155 39.1852 21.4142 39.486 21.6116C39.7962 21.7996 40.0359 22.0863 40.2051 22.4717C40.3837 22.8477 40.473 23.3224 40.473 23.8958C40.473 24.4504 40.4166 24.9862 40.3038 25.5032C40.2004 26.0202 40.0406 26.4996 39.8244 26.9414C39.6176 27.3738 39.3638 27.7592 39.063 28.0976C38.7716 28.4266 38.4332 28.6851 38.0478 28.8731C37.6624 29.0517 37.2441 29.141 36.7929 29.141C36.4545 29.141 36.1584 29.0799 35.9046 28.9577C35.6602 28.8355 35.4534 28.6757 35.2842 28.4783C35.115 28.2809 34.974 28.0694 34.8612 27.8438H34.7907C34.7813 27.9942 34.7578 28.2057 34.7202 28.4783C34.6826 28.7415 34.645 28.9577 34.6074 29.1269L33.9165 32.384H32.6898ZM36.6942 28.1117C36.995 28.1117 37.2723 28.0365 37.5261 27.8861C37.7893 27.7263 38.0243 27.5101 38.2311 27.2375C38.4379 26.9555 38.6118 26.6359 38.7528 26.2787C38.9032 25.9121 39.016 25.5267 39.0912 25.1225C39.1664 24.7089 39.204 24.2906 39.204 23.8676C39.204 23.36 39.1006 22.9793 38.8938 22.7255C38.6964 22.4717 38.4003 22.3448 38.0055 22.3448C37.7987 22.3448 37.5872 22.3965 37.371 22.4999C37.1548 22.6033 36.9433 22.7537 36.7365 22.9511C36.5297 23.1391 36.337 23.3647 36.1584 23.6279C35.9798 23.8911 35.82 24.1825 35.679 24.5021C35.5474 24.8123 35.444 25.146 35.3688 25.5032C35.2936 25.851 35.256 26.2129 35.256 26.5889C35.256 27.0401 35.3735 27.4067 35.6085 27.6887C35.8435 27.9707 36.2054 28.1117 36.6942 28.1117ZM41.5601 29L43.1675 21.4424H44.1827L44.0276 22.8383H44.0981C44.2955 22.5751 44.5023 22.3307 44.7185 22.1051C44.9347 21.8701 45.1791 21.6774 45.4517 21.527C45.7243 21.3766 46.0392 21.3014 46.3964 21.3014C46.528 21.3014 46.6643 21.3108 46.8053 21.3296C46.9557 21.339 47.092 21.3625 47.2142 21.4001L46.9463 22.514C46.8241 22.4858 46.7019 22.467 46.5797 22.4576C46.4669 22.4388 46.3494 22.4294 46.2272 22.4294C45.8794 22.4294 45.5551 22.5234 45.2543 22.7114C44.9629 22.89 44.6997 23.1297 44.4647 23.4305C44.2391 23.7313 44.0464 24.065 43.8866 24.4316C43.7268 24.7982 43.6093 25.1695 43.5341 25.5455L42.8009 29H41.5601ZM50.0047 29.1128C49.4219 29.1128 48.919 28.9953 48.496 28.7603C48.073 28.5253 47.7487 28.1916 47.5231 27.7592C47.2975 27.3174 47.1847 26.8004 47.1847 26.2082C47.1847 25.7476 47.2364 25.287 47.3398 24.8264C47.4432 24.3564 47.5936 23.9146 47.791 23.501C47.9978 23.0874 48.2516 22.7208 48.5524 22.4012C48.8532 22.0722 49.2057 21.8137 49.6099 21.6257C50.0141 21.4377 50.4653 21.3437 50.9635 21.3437C51.5557 21.3437 52.0586 21.4612 52.4722 21.6962C52.8952 21.9312 53.2195 22.2696 53.4451 22.7114C53.6707 23.1438 53.7835 23.6608 53.7835 24.2624C53.7835 24.723 53.7318 25.1836 53.6284 25.6442C53.525 26.1048 53.3699 26.5466 53.1631 26.9696C52.9657 27.3832 52.7166 27.7498 52.4158 28.0694C52.115 28.389 51.7625 28.6428 51.3583 28.8308C50.9541 29.0188 50.5029 29.1128 50.0047 29.1128ZM50.0752 28.0835C50.3478 28.0835 50.6016 28.0271 50.8366 27.9143C51.081 27.8015 51.3066 27.637 51.5134 27.4208C51.7202 27.1952 51.8941 26.9226 52.0351 26.603C52.1855 26.274 52.303 25.9027 52.3876 25.4891C52.4722 25.0755 52.5145 24.6196 52.5145 24.1214C52.5145 23.8394 52.4628 23.5668 52.3594 23.3036C52.2654 23.031 52.1056 22.8101 51.88 22.6409C51.6544 22.4623 51.3536 22.373 50.9776 22.373C50.6674 22.373 50.3807 22.4388 50.1175 22.5704C49.8543 22.702 49.6193 22.89 49.4125 23.1344C49.2057 23.3694 49.0271 23.6514 48.8767 23.9804C48.7357 24.3 48.6276 24.6525 48.5524 25.0379C48.4772 25.4233 48.4396 25.8275 48.4396 26.2505C48.4396 26.8333 48.5806 27.2845 48.8626 27.6041C49.154 27.9237 49.5582 28.0835 50.0752 28.0835ZM53.5505 32.384C53.3719 32.384 53.2074 32.3699 53.057 32.3417C52.9066 32.3135 52.7797 32.2806 52.6763 32.243V31.1996C52.7891 31.2372 52.916 31.2701 53.057 31.2983C53.198 31.3359 53.3437 31.3547 53.4941 31.3547C53.6821 31.3547 53.8513 31.303 54.0017 31.1996C54.1521 31.0962 54.2837 30.9411 54.3965 30.7343C54.4999 30.5369 54.5845 30.2831 54.6503 29.9729L56.4551 21.4424H57.6818L55.8488 30.0857C55.7548 30.5557 55.6138 30.9599 55.4258 31.2983C55.2472 31.6461 55.0075 31.914 54.7067 32.102C54.4059 32.29 54.0205 32.384 53.5505 32.384ZM57.4421 20.1875C57.2541 20.1875 57.0943 20.1311 56.9627 20.0183C56.8405 19.8961 56.7794 19.7316 56.7794 19.5248C56.7794 19.365 56.8123 19.2193 56.8781 19.0877C56.9439 18.9467 57.0379 18.8339 57.1601 18.7493C57.2823 18.6647 57.4327 18.6224 57.6113 18.6224C57.8275 18.6224 57.9873 18.6788 58.0907 18.7916C58.1941 18.9044 58.2458 19.0595 58.2458 19.2569C58.2458 19.5483 58.1612 19.7786 57.992 19.9478C57.8228 20.1076 57.6395 20.1875 57.4421 20.1875ZM61.5003 29.141C60.9175 29.141 60.4193 29.0282 60.0057 28.8026C59.6015 28.5676 59.2913 28.2386 59.0751 27.8156C58.8683 27.3832 58.7649 26.8756 58.7649 26.2928C58.7649 25.6912 58.8495 25.099 59.0187 24.5162C59.1973 23.924 59.4511 23.3882 59.7801 22.9088C60.1091 22.42 60.5039 22.0299 60.9645 21.7385C61.4345 21.4471 61.9609 21.3014 62.5437 21.3014C63.2581 21.3014 63.7939 21.4565 64.1511 21.7667C64.5177 22.0769 64.701 22.5093 64.701 23.0639C64.701 23.4305 64.6164 23.7783 64.4472 24.1073C64.278 24.4269 64.0148 24.7089 63.6576 24.9533C63.3004 25.1977 62.8445 25.3904 62.2899 25.5314C61.7353 25.663 61.0679 25.7288 60.2877 25.7288H60.048C60.0386 25.8134 60.0292 25.9027 60.0198 25.9967C60.0198 26.0907 60.0198 26.1753 60.0198 26.2505C60.0198 26.8239 60.1608 27.2798 60.4428 27.6182C60.7248 27.9472 61.1525 28.1117 61.7259 28.1117C62.0831 28.1117 62.4215 28.06 62.7411 27.9566C63.0607 27.8532 63.4085 27.7122 63.7845 27.5336V28.5911C63.4273 28.7509 63.0748 28.8825 62.727 28.9859C62.3886 29.0893 61.9797 29.141 61.5003 29.141ZM60.33 24.7277C60.894 24.7277 61.4157 24.6807 61.8951 24.5867C62.3745 24.4833 62.7599 24.3188 63.0513 24.0932C63.3427 23.8582 63.4884 23.548 63.4884 23.1626C63.4884 22.9182 63.4038 22.7208 63.2346 22.5704C63.0748 22.4106 62.821 22.3307 62.4732 22.3307C62.1724 22.3307 61.8763 22.4247 61.5849 22.6127C61.2935 22.8007 61.0303 23.0733 60.7953 23.4305C60.5603 23.7877 60.3723 24.2201 60.2313 24.7277H60.33ZM68.607 29.141C68.0524 29.141 67.5636 29.0376 67.1406 28.8308C66.7176 28.624 66.3886 28.3138 66.1536 27.9002C65.9186 27.4772 65.8011 26.9508 65.8011 26.321C65.8011 25.7758 65.8575 25.2588 65.9703 24.77C66.0925 24.2718 66.2664 23.8112 66.492 23.3882C66.7176 22.9652 66.9902 22.5986 67.3098 22.2884C67.6294 21.9782 67.9913 21.7385 68.3955 21.5693C68.8091 21.3907 69.2603 21.3014 69.7491 21.3014C70.0781 21.3014 70.4071 21.3343 70.7361 21.4001C71.0651 21.4659 71.3612 21.5552 71.6244 21.668L71.2719 22.6973C71.0839 22.6127 70.8583 22.5328 70.5951 22.4576C70.3413 22.3824 70.064 22.3448 69.7632 22.3448C69.4436 22.3448 69.1428 22.4153 68.8608 22.5563C68.5882 22.6879 68.3391 22.8759 68.1135 23.1203C67.8973 23.3647 67.7093 23.6561 67.5495 23.9945C67.3991 24.3235 67.2816 24.6854 67.197 25.0802C67.1124 25.4656 67.0701 25.8745 67.0701 26.3069C67.0701 26.6829 67.1359 27.0072 67.2675 27.2798C67.3991 27.5524 67.5871 27.7592 67.8315 27.9002C68.0853 28.0412 68.3861 28.1117 68.7339 28.1117C69.0629 28.1117 69.3731 28.0647 69.6645 27.9707C69.9653 27.8767 70.2614 27.7686 70.5528 27.6464V28.6898C70.2896 28.8214 69.9935 28.9295 69.6645 29.0141C69.3449 29.0987 68.9924 29.141 68.607 29.141ZM74.1219 29.141C73.6143 29.141 73.1866 29.0188 72.8388 28.7744C72.491 28.53 72.3171 28.1023 72.3171 27.4913C72.3171 27.3503 72.3265 27.1952 72.3453 27.026C72.3735 26.8474 72.4064 26.6688 72.444 26.4902L73.3041 22.3871H72.1338L72.2466 21.8231L73.5156 21.2873L74.3898 19.7222H75.123L74.7423 21.4424H76.6458L76.4484 22.3871H74.559L73.6848 26.5043C73.6566 26.6265 73.6284 26.7675 73.6002 26.9273C73.572 27.0777 73.5579 27.2187 73.5579 27.3503C73.5579 27.5665 73.6143 27.7498 73.7271 27.9002C73.8493 28.0506 74.042 28.1258 74.3052 28.1258C74.4744 28.1258 74.6389 28.1117 74.7987 28.0835C74.9585 28.0459 75.1277 27.9989 75.3063 27.9425V28.8872C75.1935 28.9436 75.0196 29 74.7846 29.0564C74.5496 29.1128 74.3287 29.141 74.1219 29.141Z" fill="white"/>
</svg>
