<svg width="1310" height="516" viewBox="0 0 1310 516" fill="none" xmlns="http://www.w3.org/2000/svg">
<path d="M1136.31 77.7116L1200.77 68.1554L1169.51 122.297L1197.72 143.933C1223.13 150.504 1246.24 159.406 1263.72 171.482C1282.6 184.518 1295.33 201.586 1296.63 223.611L1296.7 224.941C1299.3 281.196 1256.06 331.654 1175.3 372.959C1093.62 414.738 971.872 448.121 814.179 469.294C811.442 469.661 808.926 467.74 808.558 465.003C808.191 462.267 810.112 459.75 812.849 459.383C970.028 438.279 1090.51 405.097 1170.75 364.055C1250.66 323.185 1289.03 275.465 1286.71 225.383L1286.65 224.2C1285.59 206.21 1275.3 191.63 1258.04 179.71C1247.6 172.496 1234.76 166.382 1220.27 161.223L1227.14 166.487L1146.55 166.534L1145.47 233.015L1093.81 186.381L1025.83 240.073L1040.76 163.362L959.037 134.713L971.51 129.5C709.891 103.218 382.209 160.506 243.417 194.727C175.107 214.303 125.982 236.468 91.9446 259.231C57.8762 282.014 39.1889 305.21 31.2268 326.767C15.5614 369.18 40.7747 408.275 80.1377 429.505C172.806 475.511 316.169 481.746 458.397 471.586C600.38 461.444 740.142 435.063 824.816 416.708L826.64 416.303C835.502 414.29 840.515 412.438 843.372 411.061C844.873 410.337 845.765 409.752 846.302 409.352C847.08 408.772 846.851 408.871 847.725 408.15L847.927 407.991C850.05 406.413 853.061 406.762 854.763 408.825C856.52 410.956 856.218 414.108 854.088 415.865L854.001 415.947C853.716 416.202 852.912 416.898 852.275 417.372C851.186 418.184 849.74 419.093 847.713 420.07C843.955 421.881 838.16 423.942 828.845 426.057L826.935 426.481C742.042 444.883 601.763 471.37 459.109 481.561C316.737 491.731 170.904 485.769 75.6121 438.424L75.5385 438.387L75.4668 438.348C33.7026 415.856 3.75269 372.29 21.8463 323.302C30.7688 299.146 51.2097 274.442 86.3858 250.918C121.575 227.385 171.78 204.845 240.771 185.083L240.86 185.058L240.95 185.036C383.223 149.947 724.332 90.4247 990.614 121.516L1033.35 103.658L1018.4 57.4731L1075.84 70.2967L1115.63 9.89937L1136.31 77.7116Z" fill="white"/>
<path d="M1068.04 115.963C1073.6 129.593 1093.12 152.769 1126.66 136.434" stroke="black" stroke-width="3" stroke-linecap="round"/>
<ellipse cx="1090.64" cy="109.614" rx="3.12651" ry="6.25302" transform="rotate(15.8877 1090.64 109.614)" fill="black"/>
<ellipse cx="1112.43" cy="116.206" rx="3.12651" ry="6.25302" transform="rotate(15.8877 1112.43 116.206)" fill="black"/>
</svg>
