<svg width="163" height="165" viewBox="0 0 163 165" fill="none" xmlns="http://www.w3.org/2000/svg">
<circle cx="78.8917" cy="70.1625" r="56.8071" transform="rotate(-7.4909 78.8917 70.1625)" fill="white"/>
<path d="M46.7285 65.8262L68.8363 62.9192" stroke="black" stroke-width="3.70219" stroke-linecap="round"/>
<path d="M87.7866 60.4277L109.894 57.5208" stroke="black" stroke-width="3.70219" stroke-linecap="round"/>
<rect x="66.771" y="79.791" width="28.669" height="13.8036" rx="6.17031" transform="rotate(-7.4909 66.771 79.791)" fill="black"/>
<path d="M101.714 27.8184C103.93 28.6337 109.45 31.6904 113.798 37.394" stroke="black" stroke-width="3.70219" stroke-linecap="round"/>
<path d="M68.221 119.766L66.9735 135.688L70.9907 142.482L67.5261 146.937L66.8346 157.345L56.9308 159.26" stroke="white" stroke-width="3.70219" stroke-linecap="round"/>
<path d="M101 117.333L109.186 129.846L108.49 137.237L113.648 139.332L118.885 147.567L128.848 144.672" stroke="white" stroke-width="3.70219" stroke-linecap="round"/>
<path d="M4.73339 20.9029C4.66541 32.9094 1.18556 65.7681 11.9317 75.6469L30.9534 91.495" stroke="white" stroke-width="3" stroke-linecap="round"/>
<path d="M138.55 1.59213C141.644 12.6613 153.552 44.1996 145.708 56.0319L131.411 75.4632" stroke="white" stroke-width="3" stroke-linecap="round"/>
</svg>
