<svg width="136" height="193" viewBox="0 0 136 193" fill="none" xmlns="http://www.w3.org/2000/svg">
<circle cx="65.8008" cy="105.407" r="56.1901" fill="black" stroke="white" stroke-width="1.23406"/>
<path d="M34.4775 96.9141H56.7757" stroke="white" stroke-width="3.70219" stroke-linecap="round"/>
<path d="M75.8887 96.9141H98.1868" stroke="white" stroke-width="3.70219" stroke-linecap="round"/>
<rect x="53.618" y="113.619" width="26.7659" height="3.76594" rx="1.88297" fill="white" stroke="white" stroke-width="1.23406"/>
<path d="M112.147 2.0918C114.238 3.18918 119.312 6.93937 122.879 13.1611" stroke="white" stroke-width="3.70219" stroke-linecap="round"/>
<path d="M48.7541 153.194L45.4415 168.818L48.5387 176.077L44.5229 180.043L42.4805 190.271L32.4115 190.879" stroke="black" stroke-width="3.70219" stroke-linecap="round"/>
<path d="M80.7482 155.895L85.1168 169.729L82.3864 176.408L86.755 179.747L89.4854 188.811L99.8608 188.811" stroke="black" stroke-width="3.70219" stroke-linecap="round"/>
<path d="M16.8849 111.85C12.7129 119.739 1.3398 139.085 7.82123 149.757L13.4308 160.572" stroke="black" stroke-width="3" stroke-linecap="round"/>
<path d="M116.605 122C122.574 114.861 134 104.654 134 96.9104C134 93.1997 114.558 81 112 81" stroke="black" stroke-width="3"/>
<path d="M110.435 83.039C110.695 85.8222 109.149 90.7839 107.298 92.4813C105.166 91.1552 102.729 86.5649 102.47 83.7816C102.21 80.9984 103.783 78.5759 105.983 78.3709C108.182 78.1658 110.176 80.2558 110.435 83.039Z" fill="white"/>
<path d="M108.233 80.1016C108.539 80.4641 109.198 81.546 109.39 82.9731" stroke="black" stroke-linecap="round"/>
</svg>
